<mxfile host="Electron" agent="Mozilla/5.0 (Windows NT 10.0; Win64; x64) AppleWebKit/537.36 (KHTML, like Gecko) draw.io/26.0.16 Chrome/132.0.6834.196 Electron/34.2.0 Safari/537.36" version="26.0.16">
  <diagram id="R2lEEEUBdFMjLlhIrx00" name="Page-1">
    <mxGraphModel dx="3392" dy="1167" grid="1" gridSize="10" guides="1" tooltips="1" connect="1" arrows="1" fold="1" page="1" pageScale="1" pageWidth="2336" pageHeight="1654" math="0" shadow="0" extFonts="Permanent Marker^https://fonts.googleapis.com/css?family=Permanent+Marker">
      <root>
        <mxCell id="0" />
        <mxCell id="1" parent="0" />
        <mxCell id="13AhnGZ2lNqIllvzI92S-29" style="edgeStyle=orthogonalEdgeStyle;rounded=0;orthogonalLoop=1;jettySize=auto;html=1;exitX=1;exitY=0.5;exitDx=0;exitDy=0;entryX=0;entryY=0.5;entryDx=0;entryDy=0;endArrow=none;startFill=0;" edge="1" parent="1" source="13AhnGZ2lNqIllvzI92S-1" target="13AhnGZ2lNqIllvzI92S-10">
          <mxGeometry relative="1" as="geometry" />
        </mxCell>
        <mxCell id="13AhnGZ2lNqIllvzI92S-35" style="edgeStyle=orthogonalEdgeStyle;rounded=0;orthogonalLoop=1;jettySize=auto;html=1;exitX=0.5;exitY=1;exitDx=0;exitDy=0;entryX=0.5;entryY=0;entryDx=0;entryDy=0;endArrow=none;startFill=0;" edge="1" parent="1" source="13AhnGZ2lNqIllvzI92S-1" target="13AhnGZ2lNqIllvzI92S-13">
          <mxGeometry relative="1" as="geometry" />
        </mxCell>
        <mxCell id="13AhnGZ2lNqIllvzI92S-1" value="User" style="whiteSpace=wrap;html=1;align=center;" vertex="1" parent="1">
          <mxGeometry x="249" y="573" width="100" height="40" as="geometry" />
        </mxCell>
        <mxCell id="13AhnGZ2lNqIllvzI92S-37" style="edgeStyle=orthogonalEdgeStyle;rounded=0;orthogonalLoop=1;jettySize=auto;html=1;exitX=0.5;exitY=1;exitDx=0;exitDy=0;endArrow=none;startFill=0;" edge="1" parent="1" source="13AhnGZ2lNqIllvzI92S-2" target="13AhnGZ2lNqIllvzI92S-14">
          <mxGeometry relative="1" as="geometry">
            <mxPoint x="638.7647058823529" y="662.9999999999998" as="targetPoint" />
          </mxGeometry>
        </mxCell>
        <mxCell id="13AhnGZ2lNqIllvzI92S-63" style="edgeStyle=orthogonalEdgeStyle;rounded=0;orthogonalLoop=1;jettySize=auto;html=1;entryX=0.5;entryY=1;entryDx=0;entryDy=0;endArrow=none;startFill=0;" edge="1" parent="1" source="13AhnGZ2lNqIllvzI92S-2" target="13AhnGZ2lNqIllvzI92S-11">
          <mxGeometry relative="1" as="geometry" />
        </mxCell>
        <mxCell id="13AhnGZ2lNqIllvzI92S-64" style="edgeStyle=orthogonalEdgeStyle;rounded=0;orthogonalLoop=1;jettySize=auto;html=1;entryX=0;entryY=0.5;entryDx=0;entryDy=0;endArrow=none;startFill=0;" edge="1" parent="1" source="13AhnGZ2lNqIllvzI92S-2" target="13AhnGZ2lNqIllvzI92S-15">
          <mxGeometry relative="1" as="geometry" />
        </mxCell>
        <mxCell id="13AhnGZ2lNqIllvzI92S-2" value="Order" style="whiteSpace=wrap;html=1;align=center;" vertex="1" parent="1">
          <mxGeometry x="589" y="573" width="100" height="40" as="geometry" />
        </mxCell>
        <mxCell id="13AhnGZ2lNqIllvzI92S-33" style="edgeStyle=orthogonalEdgeStyle;rounded=0;orthogonalLoop=1;jettySize=auto;html=1;exitX=0.5;exitY=0;exitDx=0;exitDy=0;entryX=0.5;entryY=0;entryDx=0;entryDy=0;endArrow=none;startFill=0;" edge="1" parent="1" source="13AhnGZ2lNqIllvzI92S-3" target="13AhnGZ2lNqIllvzI92S-12">
          <mxGeometry relative="1" as="geometry" />
        </mxCell>
        <mxCell id="13AhnGZ2lNqIllvzI92S-3" value="Product" style="whiteSpace=wrap;html=1;align=center;" vertex="1" parent="1">
          <mxGeometry x="419" y="113" width="100" height="40" as="geometry" />
        </mxCell>
        <mxCell id="13AhnGZ2lNqIllvzI92S-57" style="edgeStyle=orthogonalEdgeStyle;rounded=0;orthogonalLoop=1;jettySize=auto;html=1;exitX=0.5;exitY=1;exitDx=0;exitDy=0;entryX=0.5;entryY=0;entryDx=0;entryDy=0;endArrow=none;startFill=0;" edge="1" parent="1" source="13AhnGZ2lNqIllvzI92S-4" target="13AhnGZ2lNqIllvzI92S-11">
          <mxGeometry relative="1" as="geometry" />
        </mxCell>
        <mxCell id="13AhnGZ2lNqIllvzI92S-4" value="Order_Item" style="whiteSpace=wrap;html=1;align=center;" vertex="1" parent="1">
          <mxGeometry x="589" y="343" width="100" height="40" as="geometry" />
        </mxCell>
        <mxCell id="13AhnGZ2lNqIllvzI92S-5" value="Category" style="whiteSpace=wrap;html=1;align=center;" vertex="1" parent="1">
          <mxGeometry x="769" y="233" width="100" height="40" as="geometry" />
        </mxCell>
        <mxCell id="13AhnGZ2lNqIllvzI92S-6" value="Payment" style="whiteSpace=wrap;html=1;align=center;" vertex="1" parent="1">
          <mxGeometry x="249" y="833" width="100" height="40" as="geometry" />
        </mxCell>
        <mxCell id="13AhnGZ2lNqIllvzI92S-7" value="Shipping" style="whiteSpace=wrap;html=1;align=center;" vertex="1" parent="1">
          <mxGeometry x="589" y="833" width="100" height="40" as="geometry" />
        </mxCell>
        <mxCell id="13AhnGZ2lNqIllvzI92S-8" value="Discount" style="whiteSpace=wrap;html=1;align=center;" vertex="1" parent="1">
          <mxGeometry x="769" y="456" width="100" height="40" as="geometry" />
        </mxCell>
        <mxCell id="13AhnGZ2lNqIllvzI92S-30" style="edgeStyle=orthogonalEdgeStyle;rounded=0;orthogonalLoop=1;jettySize=auto;html=1;exitX=1;exitY=0.5;exitDx=0;exitDy=0;endArrow=none;startFill=0;" edge="1" parent="1" source="13AhnGZ2lNqIllvzI92S-10" target="13AhnGZ2lNqIllvzI92S-2">
          <mxGeometry relative="1" as="geometry" />
        </mxCell>
        <mxCell id="13AhnGZ2lNqIllvzI92S-10" value="Places" style="shape=rhombus;double=1;perimeter=rhombusPerimeter;whiteSpace=wrap;html=1;align=center;" vertex="1" parent="1">
          <mxGeometry x="409" y="563" width="120" height="60" as="geometry" />
        </mxCell>
        <mxCell id="13AhnGZ2lNqIllvzI92S-11" value="Contains" style="shape=rhombus;double=1;perimeter=rhombusPerimeter;whiteSpace=wrap;html=1;align=center;" vertex="1" parent="1">
          <mxGeometry x="579" y="443" width="120" height="60" as="geometry" />
        </mxCell>
        <mxCell id="13AhnGZ2lNqIllvzI92S-34" style="edgeStyle=orthogonalEdgeStyle;rounded=0;orthogonalLoop=1;jettySize=auto;html=1;exitX=0.5;exitY=1;exitDx=0;exitDy=0;entryX=0.5;entryY=0;entryDx=0;entryDy=0;endArrow=none;startFill=0;" edge="1" parent="1" source="13AhnGZ2lNqIllvzI92S-12" target="13AhnGZ2lNqIllvzI92S-5">
          <mxGeometry relative="1" as="geometry" />
        </mxCell>
        <mxCell id="13AhnGZ2lNqIllvzI92S-12" value="Belongs to" style="shape=rhombus;double=1;perimeter=rhombusPerimeter;whiteSpace=wrap;html=1;align=center;" vertex="1" parent="1">
          <mxGeometry x="759" y="103" width="120" height="60" as="geometry" />
        </mxCell>
        <mxCell id="13AhnGZ2lNqIllvzI92S-36" style="edgeStyle=orthogonalEdgeStyle;rounded=0;orthogonalLoop=1;jettySize=auto;html=1;exitX=0.5;exitY=1;exitDx=0;exitDy=0;endArrow=none;startFill=0;" edge="1" parent="1" source="13AhnGZ2lNqIllvzI92S-13" target="13AhnGZ2lNqIllvzI92S-6">
          <mxGeometry relative="1" as="geometry" />
        </mxCell>
        <mxCell id="13AhnGZ2lNqIllvzI92S-13" value="Pays" style="shape=rhombus;double=1;perimeter=rhombusPerimeter;whiteSpace=wrap;html=1;align=center;" vertex="1" parent="1">
          <mxGeometry x="239" y="693" width="120" height="60" as="geometry" />
        </mxCell>
        <mxCell id="13AhnGZ2lNqIllvzI92S-38" style="edgeStyle=orthogonalEdgeStyle;rounded=0;orthogonalLoop=1;jettySize=auto;html=1;exitX=0.5;exitY=1;exitDx=0;exitDy=0;entryX=0.5;entryY=0;entryDx=0;entryDy=0;endArrow=none;startFill=0;" edge="1" parent="1" source="13AhnGZ2lNqIllvzI92S-14" target="13AhnGZ2lNqIllvzI92S-7">
          <mxGeometry relative="1" as="geometry" />
        </mxCell>
        <mxCell id="13AhnGZ2lNqIllvzI92S-14" value="Ships" style="shape=rhombus;double=1;perimeter=rhombusPerimeter;whiteSpace=wrap;html=1;align=center;" vertex="1" parent="1">
          <mxGeometry x="579" y="693" width="120" height="60" as="geometry" />
        </mxCell>
        <mxCell id="13AhnGZ2lNqIllvzI92S-248" style="edgeStyle=orthogonalEdgeStyle;rounded=0;orthogonalLoop=1;jettySize=auto;html=1;exitX=0.5;exitY=0;exitDx=0;exitDy=0;entryX=0.5;entryY=1;entryDx=0;entryDy=0;endArrow=none;startFill=0;" edge="1" parent="1" source="13AhnGZ2lNqIllvzI92S-15" target="13AhnGZ2lNqIllvzI92S-8">
          <mxGeometry relative="1" as="geometry" />
        </mxCell>
        <mxCell id="13AhnGZ2lNqIllvzI92S-15" value="Has Discount" style="shape=rhombus;double=1;perimeter=rhombusPerimeter;whiteSpace=wrap;html=1;align=center;" vertex="1" parent="1">
          <mxGeometry x="759" y="564" width="120" height="60" as="geometry" />
        </mxCell>
        <mxCell id="13AhnGZ2lNqIllvzI92S-46" style="edgeStyle=orthogonalEdgeStyle;rounded=0;orthogonalLoop=1;jettySize=auto;html=1;endArrow=none;startFill=0;exitX=0.5;exitY=1;exitDx=0;exitDy=0;" edge="1" parent="1" source="13AhnGZ2lNqIllvzI92S-16" target="13AhnGZ2lNqIllvzI92S-1">
          <mxGeometry relative="1" as="geometry">
            <mxPoint x="298.9999999999998" y="462.9999999999998" as="sourcePoint" />
          </mxGeometry>
        </mxCell>
        <mxCell id="13AhnGZ2lNqIllvzI92S-47" style="edgeStyle=orthogonalEdgeStyle;rounded=0;orthogonalLoop=1;jettySize=auto;html=1;exitX=0.5;exitY=0;exitDx=0;exitDy=0;entryX=0;entryY=0.5;entryDx=0;entryDy=0;endArrow=none;startFill=0;" edge="1" parent="1" source="13AhnGZ2lNqIllvzI92S-51" target="13AhnGZ2lNqIllvzI92S-3">
          <mxGeometry relative="1" as="geometry" />
        </mxCell>
        <mxCell id="13AhnGZ2lNqIllvzI92S-16" value="Writes" style="shape=rhombus;double=1;perimeter=rhombusPerimeter;whiteSpace=wrap;html=1;align=center;" vertex="1" parent="1">
          <mxGeometry x="239" y="443" width="120" height="60" as="geometry" />
        </mxCell>
        <mxCell id="13AhnGZ2lNqIllvzI92S-52" value="" style="edgeStyle=orthogonalEdgeStyle;rounded=0;orthogonalLoop=1;jettySize=auto;html=1;exitX=0.5;exitY=0;exitDx=0;exitDy=0;entryX=0.5;entryY=1;entryDx=0;entryDy=0;endArrow=none;startFill=0;" edge="1" parent="1" source="13AhnGZ2lNqIllvzI92S-9" target="13AhnGZ2lNqIllvzI92S-51">
          <mxGeometry relative="1" as="geometry">
            <mxPoint x="699" y="53" as="sourcePoint" />
            <mxPoint x="979" y="293" as="targetPoint" />
            <Array as="points" />
          </mxGeometry>
        </mxCell>
        <mxCell id="13AhnGZ2lNqIllvzI92S-51" value="About" style="shape=rhombus;double=1;perimeter=rhombusPerimeter;whiteSpace=wrap;html=1;align=center;" vertex="1" parent="1">
          <mxGeometry x="239" y="223" width="120" height="60" as="geometry" />
        </mxCell>
        <mxCell id="13AhnGZ2lNqIllvzI92S-53" value="" style="edgeStyle=orthogonalEdgeStyle;rounded=0;orthogonalLoop=1;jettySize=auto;html=1;exitX=0.5;exitY=0;exitDx=0;exitDy=0;entryX=0.5;entryY=1;entryDx=0;entryDy=0;endArrow=none;startFill=0;" edge="1" parent="1" source="13AhnGZ2lNqIllvzI92S-16" target="13AhnGZ2lNqIllvzI92S-9">
          <mxGeometry relative="1" as="geometry">
            <mxPoint x="529" y="53" as="sourcePoint" />
            <mxPoint x="749" y="53" as="targetPoint" />
            <Array as="points" />
          </mxGeometry>
        </mxCell>
        <mxCell id="13AhnGZ2lNqIllvzI92S-9" value="Review" style="whiteSpace=wrap;html=1;align=center;" vertex="1" parent="1">
          <mxGeometry x="249" y="343" width="100" height="40" as="geometry" />
        </mxCell>
        <mxCell id="13AhnGZ2lNqIllvzI92S-59" style="edgeStyle=orthogonalEdgeStyle;rounded=0;orthogonalLoop=1;jettySize=auto;html=1;endArrow=none;startFill=0;" edge="1" parent="1" source="13AhnGZ2lNqIllvzI92S-58" target="13AhnGZ2lNqIllvzI92S-4">
          <mxGeometry relative="1" as="geometry" />
        </mxCell>
        <mxCell id="13AhnGZ2lNqIllvzI92S-60" style="edgeStyle=orthogonalEdgeStyle;rounded=0;orthogonalLoop=1;jettySize=auto;html=1;exitX=0.5;exitY=0;exitDx=0;exitDy=0;entryX=1;entryY=0.5;entryDx=0;entryDy=0;endArrow=none;startFill=0;" edge="1" parent="1" source="13AhnGZ2lNqIllvzI92S-58" target="13AhnGZ2lNqIllvzI92S-3">
          <mxGeometry relative="1" as="geometry" />
        </mxCell>
        <mxCell id="13AhnGZ2lNqIllvzI92S-58" value="Relates to" style="shape=rhombus;double=1;perimeter=rhombusPerimeter;whiteSpace=wrap;html=1;align=center;" vertex="1" parent="1">
          <mxGeometry x="579" y="223" width="120" height="60" as="geometry" />
        </mxCell>
        <mxCell id="13AhnGZ2lNqIllvzI92S-65" value="" style="group" vertex="1" connectable="0" parent="1">
          <mxGeometry x="348" y="542" width="73" height="57" as="geometry" />
        </mxCell>
        <mxCell id="13AhnGZ2lNqIllvzI92S-66" value="" style="ellipse;whiteSpace=wrap;html=1;aspect=fixed;fillColor=#000000;" vertex="1" parent="13AhnGZ2lNqIllvzI92S-65">
          <mxGeometry x="24" y="8" width="8" height="8" as="geometry" />
        </mxCell>
        <mxCell id="13AhnGZ2lNqIllvzI92S-67" value="" style="endArrow=none;html=1;rounded=0;entryX=0;entryY=1;entryDx=0;entryDy=0;" edge="1" parent="13AhnGZ2lNqIllvzI92S-65" target="13AhnGZ2lNqIllvzI92S-66">
          <mxGeometry width="50" height="50" relative="1" as="geometry">
            <mxPoint y="40" as="sourcePoint" />
            <mxPoint x="32" y="8" as="targetPoint" />
          </mxGeometry>
        </mxCell>
        <mxCell id="13AhnGZ2lNqIllvzI92S-68" value="UserID" style="text;html=1;align=center;verticalAlign=middle;resizable=0;points=[];autosize=1;strokeColor=none;fillColor=none;" vertex="1" parent="13AhnGZ2lNqIllvzI92S-65">
          <mxGeometry x="-2" y="-14" width="60" height="30" as="geometry" />
        </mxCell>
        <mxCell id="13AhnGZ2lNqIllvzI92S-310" value="&lt;b&gt;(1,N)&lt;/b&gt;" style="text;html=1;align=center;verticalAlign=middle;resizable=0;points=[];autosize=1;strokeColor=none;fillColor=none;" vertex="1" parent="13AhnGZ2lNqIllvzI92S-65">
          <mxGeometry x="8" y="27" width="50" height="30" as="geometry" />
        </mxCell>
        <mxCell id="13AhnGZ2lNqIllvzI92S-69" value="" style="group" vertex="1" connectable="0" parent="1">
          <mxGeometry x="689" y="533" width="73" height="40" as="geometry" />
        </mxCell>
        <mxCell id="13AhnGZ2lNqIllvzI92S-70" value="" style="ellipse;whiteSpace=wrap;html=1;aspect=fixed;fillColor=#000000;" vertex="1" parent="13AhnGZ2lNqIllvzI92S-69">
          <mxGeometry x="24" y="8" width="8" height="8" as="geometry" />
        </mxCell>
        <mxCell id="13AhnGZ2lNqIllvzI92S-71" value="" style="endArrow=none;html=1;rounded=0;entryX=0;entryY=1;entryDx=0;entryDy=0;" edge="1" parent="13AhnGZ2lNqIllvzI92S-69" target="13AhnGZ2lNqIllvzI92S-70">
          <mxGeometry width="50" height="50" relative="1" as="geometry">
            <mxPoint y="40" as="sourcePoint" />
            <mxPoint x="32" y="8" as="targetPoint" />
          </mxGeometry>
        </mxCell>
        <mxCell id="13AhnGZ2lNqIllvzI92S-72" value="OrderID" style="text;html=1;align=center;verticalAlign=middle;resizable=0;points=[];autosize=1;strokeColor=none;fillColor=none;" vertex="1" parent="13AhnGZ2lNqIllvzI92S-69">
          <mxGeometry x="-7" y="-14" width="70" height="30" as="geometry" />
        </mxCell>
        <mxCell id="13AhnGZ2lNqIllvzI92S-73" value="" style="group" vertex="1" connectable="0" parent="1">
          <mxGeometry x="349" y="303" width="73" height="40" as="geometry" />
        </mxCell>
        <mxCell id="13AhnGZ2lNqIllvzI92S-74" value="" style="ellipse;whiteSpace=wrap;html=1;aspect=fixed;fillColor=#000000;" vertex="1" parent="13AhnGZ2lNqIllvzI92S-73">
          <mxGeometry x="24" y="8" width="8" height="8" as="geometry" />
        </mxCell>
        <mxCell id="13AhnGZ2lNqIllvzI92S-75" value="" style="endArrow=none;html=1;rounded=0;entryX=0;entryY=1;entryDx=0;entryDy=0;" edge="1" parent="13AhnGZ2lNqIllvzI92S-73" target="13AhnGZ2lNqIllvzI92S-74">
          <mxGeometry width="50" height="50" relative="1" as="geometry">
            <mxPoint y="40" as="sourcePoint" />
            <mxPoint x="32" y="8" as="targetPoint" />
          </mxGeometry>
        </mxCell>
        <mxCell id="13AhnGZ2lNqIllvzI92S-76" value="ReviewID" style="text;html=1;align=center;verticalAlign=middle;resizable=0;points=[];autosize=1;strokeColor=none;fillColor=none;" vertex="1" parent="13AhnGZ2lNqIllvzI92S-73">
          <mxGeometry x="-7" y="-14" width="70" height="30" as="geometry" />
        </mxCell>
        <mxCell id="13AhnGZ2lNqIllvzI92S-77" value="" style="group" vertex="1" connectable="0" parent="1">
          <mxGeometry x="689" y="303" width="73" height="40" as="geometry" />
        </mxCell>
        <mxCell id="13AhnGZ2lNqIllvzI92S-78" value="" style="ellipse;whiteSpace=wrap;html=1;aspect=fixed;fillColor=#000000;" vertex="1" parent="13AhnGZ2lNqIllvzI92S-77">
          <mxGeometry x="24" y="8" width="8" height="8" as="geometry" />
        </mxCell>
        <mxCell id="13AhnGZ2lNqIllvzI92S-79" value="" style="endArrow=none;html=1;rounded=0;entryX=0;entryY=1;entryDx=0;entryDy=0;" edge="1" parent="13AhnGZ2lNqIllvzI92S-77" target="13AhnGZ2lNqIllvzI92S-78">
          <mxGeometry width="50" height="50" relative="1" as="geometry">
            <mxPoint y="40" as="sourcePoint" />
            <mxPoint x="32" y="8" as="targetPoint" />
          </mxGeometry>
        </mxCell>
        <mxCell id="13AhnGZ2lNqIllvzI92S-80" value="OrderID" style="text;html=1;align=center;verticalAlign=middle;resizable=0;points=[];autosize=1;strokeColor=none;fillColor=none;" vertex="1" parent="13AhnGZ2lNqIllvzI92S-77">
          <mxGeometry x="-7" y="-14" width="70" height="30" as="geometry" />
        </mxCell>
        <mxCell id="13AhnGZ2lNqIllvzI92S-81" value="" style="group" vertex="1" connectable="0" parent="1">
          <mxGeometry x="869" y="193" width="73" height="40" as="geometry" />
        </mxCell>
        <mxCell id="13AhnGZ2lNqIllvzI92S-82" value="" style="ellipse;whiteSpace=wrap;html=1;aspect=fixed;fillColor=#000000;" vertex="1" parent="13AhnGZ2lNqIllvzI92S-81">
          <mxGeometry x="24" y="8" width="8" height="8" as="geometry" />
        </mxCell>
        <mxCell id="13AhnGZ2lNqIllvzI92S-83" value="" style="endArrow=none;html=1;rounded=0;entryX=0;entryY=1;entryDx=0;entryDy=0;" edge="1" parent="13AhnGZ2lNqIllvzI92S-81" target="13AhnGZ2lNqIllvzI92S-82">
          <mxGeometry width="50" height="50" relative="1" as="geometry">
            <mxPoint y="40" as="sourcePoint" />
            <mxPoint x="32" y="8" as="targetPoint" />
          </mxGeometry>
        </mxCell>
        <mxCell id="13AhnGZ2lNqIllvzI92S-84" value="CategoryID" style="text;html=1;align=center;verticalAlign=middle;resizable=0;points=[];autosize=1;strokeColor=none;fillColor=none;" vertex="1" parent="13AhnGZ2lNqIllvzI92S-81">
          <mxGeometry x="-12" y="-16" width="80" height="30" as="geometry" />
        </mxCell>
        <mxCell id="13AhnGZ2lNqIllvzI92S-85" value="" style="group" vertex="1" connectable="0" parent="1">
          <mxGeometry x="349" y="793" width="73" height="40" as="geometry" />
        </mxCell>
        <mxCell id="13AhnGZ2lNqIllvzI92S-86" value="" style="ellipse;whiteSpace=wrap;html=1;aspect=fixed;fillColor=#000000;" vertex="1" parent="13AhnGZ2lNqIllvzI92S-85">
          <mxGeometry x="24" y="8" width="8" height="8" as="geometry" />
        </mxCell>
        <mxCell id="13AhnGZ2lNqIllvzI92S-87" value="" style="endArrow=none;html=1;rounded=0;entryX=0;entryY=1;entryDx=0;entryDy=0;" edge="1" parent="13AhnGZ2lNqIllvzI92S-85" target="13AhnGZ2lNqIllvzI92S-86">
          <mxGeometry width="50" height="50" relative="1" as="geometry">
            <mxPoint y="40" as="sourcePoint" />
            <mxPoint x="32" y="8" as="targetPoint" />
          </mxGeometry>
        </mxCell>
        <mxCell id="13AhnGZ2lNqIllvzI92S-88" value="PaymentID" style="text;html=1;align=center;verticalAlign=middle;resizable=0;points=[];autosize=1;strokeColor=none;fillColor=none;" vertex="1" parent="13AhnGZ2lNqIllvzI92S-85">
          <mxGeometry x="-12" y="-14" width="80" height="30" as="geometry" />
        </mxCell>
        <mxCell id="13AhnGZ2lNqIllvzI92S-89" value="" style="group" vertex="1" connectable="0" parent="1">
          <mxGeometry x="689" y="793" width="73" height="40" as="geometry" />
        </mxCell>
        <mxCell id="13AhnGZ2lNqIllvzI92S-90" value="" style="ellipse;whiteSpace=wrap;html=1;aspect=fixed;fillColor=#000000;" vertex="1" parent="13AhnGZ2lNqIllvzI92S-89">
          <mxGeometry x="24" y="8" width="8" height="8" as="geometry" />
        </mxCell>
        <mxCell id="13AhnGZ2lNqIllvzI92S-91" value="" style="endArrow=none;html=1;rounded=0;entryX=0;entryY=1;entryDx=0;entryDy=0;" edge="1" parent="13AhnGZ2lNqIllvzI92S-89" target="13AhnGZ2lNqIllvzI92S-90">
          <mxGeometry width="50" height="50" relative="1" as="geometry">
            <mxPoint y="40" as="sourcePoint" />
            <mxPoint x="32" y="8" as="targetPoint" />
          </mxGeometry>
        </mxCell>
        <mxCell id="13AhnGZ2lNqIllvzI92S-92" value="ShippingID" style="text;html=1;align=center;verticalAlign=middle;resizable=0;points=[];autosize=1;strokeColor=none;fillColor=none;" vertex="1" parent="13AhnGZ2lNqIllvzI92S-89">
          <mxGeometry x="-12" y="-14" width="80" height="30" as="geometry" />
        </mxCell>
        <mxCell id="13AhnGZ2lNqIllvzI92S-93" value="" style="group" vertex="1" connectable="0" parent="1">
          <mxGeometry x="869" y="416" width="73" height="40" as="geometry" />
        </mxCell>
        <mxCell id="13AhnGZ2lNqIllvzI92S-94" value="" style="ellipse;whiteSpace=wrap;html=1;aspect=fixed;fillColor=#000000;" vertex="1" parent="13AhnGZ2lNqIllvzI92S-93">
          <mxGeometry x="24" y="8" width="8" height="8" as="geometry" />
        </mxCell>
        <mxCell id="13AhnGZ2lNqIllvzI92S-95" value="" style="endArrow=none;html=1;rounded=0;entryX=0;entryY=1;entryDx=0;entryDy=0;" edge="1" parent="13AhnGZ2lNqIllvzI92S-93" target="13AhnGZ2lNqIllvzI92S-94">
          <mxGeometry width="50" height="50" relative="1" as="geometry">
            <mxPoint y="40" as="sourcePoint" />
            <mxPoint x="32" y="8" as="targetPoint" />
          </mxGeometry>
        </mxCell>
        <mxCell id="13AhnGZ2lNqIllvzI92S-96" value="DiscountID" style="text;html=1;align=center;verticalAlign=middle;resizable=0;points=[];autosize=1;strokeColor=none;fillColor=none;" vertex="1" parent="13AhnGZ2lNqIllvzI92S-93">
          <mxGeometry x="-12" y="-14" width="80" height="30" as="geometry" />
        </mxCell>
        <mxCell id="13AhnGZ2lNqIllvzI92S-97" value="" style="group;rotation=-90;" vertex="1" connectable="0" parent="1">
          <mxGeometry x="362" y="56" width="73" height="40" as="geometry" />
        </mxCell>
        <mxCell id="13AhnGZ2lNqIllvzI92S-98" value="" style="ellipse;whiteSpace=wrap;html=1;aspect=fixed;fillColor=#000000;rotation=-90;" vertex="1" parent="13AhnGZ2lNqIllvzI92S-97">
          <mxGeometry x="25" y="25" width="8" height="8" as="geometry" />
        </mxCell>
        <mxCell id="13AhnGZ2lNqIllvzI92S-99" value="" style="endArrow=none;html=1;rounded=0;entryX=0;entryY=1;entryDx=0;entryDy=0;" edge="1" parent="13AhnGZ2lNqIllvzI92S-97" target="13AhnGZ2lNqIllvzI92S-98">
          <mxGeometry width="50" height="50" relative="1" as="geometry">
            <mxPoint x="57" y="57" as="sourcePoint" />
            <mxPoint x="25" y="25" as="targetPoint" />
          </mxGeometry>
        </mxCell>
        <mxCell id="13AhnGZ2lNqIllvzI92S-100" value="ProductID" style="text;html=1;align=center;verticalAlign=middle;resizable=0;points=[];autosize=1;strokeColor=none;fillColor=none;rotation=0;" vertex="1" parent="13AhnGZ2lNqIllvzI92S-97">
          <mxGeometry x="-11" width="80" height="30" as="geometry" />
        </mxCell>
        <mxCell id="13AhnGZ2lNqIllvzI92S-101" value="" style="group;movable=1;resizable=1;rotatable=1;deletable=1;editable=1;locked=0;connectable=1;rotation=-90;" vertex="1" connectable="0" parent="1">
          <mxGeometry x="219" y="803" width="30" height="30" as="geometry" />
        </mxCell>
        <mxCell id="13AhnGZ2lNqIllvzI92S-102" value="" style="ellipse;whiteSpace=wrap;html=1;aspect=fixed;movable=1;resizable=1;rotatable=1;deletable=1;editable=1;locked=0;connectable=1;rotation=-90;" vertex="1" parent="13AhnGZ2lNqIllvzI92S-101">
          <mxGeometry y="-1" width="7" height="7" as="geometry" />
        </mxCell>
        <mxCell id="13AhnGZ2lNqIllvzI92S-103" value="" style="endArrow=none;html=1;rounded=0;entryX=0;entryY=1;entryDx=0;entryDy=0;movable=1;resizable=1;rotatable=1;deletable=1;editable=1;locked=0;connectable=1;" edge="1" parent="13AhnGZ2lNqIllvzI92S-101" target="13AhnGZ2lNqIllvzI92S-102">
          <mxGeometry width="50" height="50" relative="1" as="geometry">
            <mxPoint x="30" y="30" as="sourcePoint" />
            <mxPoint x="6" y="6" as="targetPoint" />
          </mxGeometry>
        </mxCell>
        <mxCell id="13AhnGZ2lNqIllvzI92S-117" value="Amount" style="text;html=1;align=center;verticalAlign=middle;resizable=0;points=[];autosize=1;strokeColor=none;fillColor=none;" vertex="1" parent="1">
          <mxGeometry x="193" y="780" width="60" height="30" as="geometry" />
        </mxCell>
        <mxCell id="13AhnGZ2lNqIllvzI92S-118" value="" style="group;movable=1;resizable=1;rotatable=1;deletable=1;editable=1;locked=0;connectable=1;rotation=-225;" vertex="1" connectable="0" parent="1">
          <mxGeometry x="318" y="619" width="30" height="30" as="geometry" />
        </mxCell>
        <mxCell id="13AhnGZ2lNqIllvzI92S-119" value="" style="ellipse;whiteSpace=wrap;html=1;aspect=fixed;movable=1;resizable=1;rotatable=1;deletable=1;editable=1;locked=0;connectable=1;rotation=-225;" vertex="1" parent="13AhnGZ2lNqIllvzI92S-118">
          <mxGeometry x="11" y="28" width="7" height="7" as="geometry" />
        </mxCell>
        <mxCell id="13AhnGZ2lNqIllvzI92S-120" value="" style="endArrow=none;html=1;rounded=0;entryX=0;entryY=1;entryDx=0;entryDy=0;movable=1;resizable=1;rotatable=1;deletable=1;editable=1;locked=0;connectable=1;" edge="1" parent="13AhnGZ2lNqIllvzI92S-118" target="13AhnGZ2lNqIllvzI92S-119">
          <mxGeometry width="50" height="50" relative="1" as="geometry">
            <mxPoint x="15" y="-6" as="sourcePoint" />
            <mxPoint x="15" y="28" as="targetPoint" />
          </mxGeometry>
        </mxCell>
        <mxCell id="13AhnGZ2lNqIllvzI92S-121" value="Email" style="text;html=1;align=center;verticalAlign=middle;resizable=0;points=[];autosize=1;strokeColor=none;fillColor=none;" vertex="1" parent="1">
          <mxGeometry x="306" y="647" width="50" height="30" as="geometry" />
        </mxCell>
        <mxCell id="13AhnGZ2lNqIllvzI92S-122" value="" style="group;movable=1;resizable=1;rotatable=1;deletable=1;editable=1;locked=0;connectable=1;rotation=-90;" vertex="1" connectable="0" parent="1">
          <mxGeometry x="219" y="313" width="30" height="30" as="geometry" />
        </mxCell>
        <mxCell id="13AhnGZ2lNqIllvzI92S-123" value="" style="ellipse;whiteSpace=wrap;html=1;aspect=fixed;movable=1;resizable=1;rotatable=1;deletable=1;editable=1;locked=0;connectable=1;rotation=-90;" vertex="1" parent="13AhnGZ2lNqIllvzI92S-122">
          <mxGeometry y="-1" width="7" height="7" as="geometry" />
        </mxCell>
        <mxCell id="13AhnGZ2lNqIllvzI92S-124" value="" style="endArrow=none;html=1;rounded=0;entryX=0;entryY=1;entryDx=0;entryDy=0;movable=1;resizable=1;rotatable=1;deletable=1;editable=1;locked=0;connectable=1;" edge="1" parent="13AhnGZ2lNqIllvzI92S-122" target="13AhnGZ2lNqIllvzI92S-123">
          <mxGeometry width="50" height="50" relative="1" as="geometry">
            <mxPoint x="30" y="30" as="sourcePoint" />
            <mxPoint x="6" y="6" as="targetPoint" />
          </mxGeometry>
        </mxCell>
        <mxCell id="13AhnGZ2lNqIllvzI92S-125" value="Date" style="text;html=1;align=center;verticalAlign=middle;resizable=0;points=[];autosize=1;strokeColor=none;fillColor=none;" vertex="1" parent="1">
          <mxGeometry x="198" y="290" width="50" height="30" as="geometry" />
        </mxCell>
        <mxCell id="13AhnGZ2lNqIllvzI92S-130" value="" style="group;movable=1;resizable=1;rotatable=1;deletable=1;editable=1;locked=0;connectable=1;rotation=-90;" vertex="1" connectable="0" parent="1">
          <mxGeometry x="559" y="543" width="30" height="30" as="geometry" />
        </mxCell>
        <mxCell id="13AhnGZ2lNqIllvzI92S-131" value="" style="ellipse;whiteSpace=wrap;html=1;aspect=fixed;movable=1;resizable=1;rotatable=1;deletable=1;editable=1;locked=0;connectable=1;rotation=-90;" vertex="1" parent="13AhnGZ2lNqIllvzI92S-130">
          <mxGeometry y="-1" width="7" height="7" as="geometry" />
        </mxCell>
        <mxCell id="13AhnGZ2lNqIllvzI92S-132" value="" style="endArrow=none;html=1;rounded=0;entryX=0;entryY=1;entryDx=0;entryDy=0;movable=1;resizable=1;rotatable=1;deletable=1;editable=1;locked=0;connectable=1;" edge="1" parent="13AhnGZ2lNqIllvzI92S-130" target="13AhnGZ2lNqIllvzI92S-131">
          <mxGeometry width="50" height="50" relative="1" as="geometry">
            <mxPoint x="30" y="30" as="sourcePoint" />
            <mxPoint x="6" y="6" as="targetPoint" />
          </mxGeometry>
        </mxCell>
        <mxCell id="13AhnGZ2lNqIllvzI92S-133" value="OrderDate" style="text;html=1;align=center;verticalAlign=middle;resizable=0;points=[];autosize=1;strokeColor=none;fillColor=none;" vertex="1" parent="1">
          <mxGeometry x="523" y="520" width="80" height="30" as="geometry" />
        </mxCell>
        <mxCell id="13AhnGZ2lNqIllvzI92S-141" value="ProductID" style="text;html=1;align=center;verticalAlign=middle;resizable=0;points=[];autosize=1;strokeColor=none;fillColor=none;" vertex="1" parent="1">
          <mxGeometry x="522" y="289" width="80" height="30" as="geometry" />
        </mxCell>
        <mxCell id="13AhnGZ2lNqIllvzI92S-150" value="" style="group;movable=1;resizable=1;rotatable=1;deletable=1;editable=1;locked=0;connectable=1;rotation=-180;" vertex="1" connectable="0" parent="1">
          <mxGeometry x="389" y="153" width="30" height="30" as="geometry" />
        </mxCell>
        <mxCell id="13AhnGZ2lNqIllvzI92S-151" value="" style="ellipse;whiteSpace=wrap;html=1;aspect=fixed;movable=1;resizable=1;rotatable=1;deletable=1;editable=1;locked=0;connectable=1;rotation=-180;" vertex="1" parent="13AhnGZ2lNqIllvzI92S-150">
          <mxGeometry x="-1" y="23" width="7" height="7" as="geometry" />
        </mxCell>
        <mxCell id="13AhnGZ2lNqIllvzI92S-152" value="" style="endArrow=none;html=1;rounded=0;entryX=0;entryY=1;entryDx=0;entryDy=0;movable=1;resizable=1;rotatable=1;deletable=1;editable=1;locked=0;connectable=1;" edge="1" parent="13AhnGZ2lNqIllvzI92S-150" target="13AhnGZ2lNqIllvzI92S-151">
          <mxGeometry width="50" height="50" relative="1" as="geometry">
            <mxPoint x="30" as="sourcePoint" />
            <mxPoint x="6" y="24" as="targetPoint" />
          </mxGeometry>
        </mxCell>
        <mxCell id="13AhnGZ2lNqIllvzI92S-153" value="Name" style="text;html=1;align=center;verticalAlign=middle;resizable=0;points=[];autosize=1;strokeColor=none;fillColor=none;" vertex="1" parent="1">
          <mxGeometry x="361" y="175" width="60" height="30" as="geometry" />
        </mxCell>
        <mxCell id="13AhnGZ2lNqIllvzI92S-158" value="" style="group;movable=1;resizable=1;rotatable=1;deletable=1;editable=1;locked=0;connectable=1;rotation=-180;" vertex="1" connectable="0" parent="1">
          <mxGeometry x="219" y="383" width="30" height="30" as="geometry" />
        </mxCell>
        <mxCell id="13AhnGZ2lNqIllvzI92S-159" value="" style="ellipse;whiteSpace=wrap;html=1;aspect=fixed;movable=1;resizable=1;rotatable=1;deletable=1;editable=1;locked=0;connectable=1;rotation=-180;" vertex="1" parent="13AhnGZ2lNqIllvzI92S-158">
          <mxGeometry x="-1" y="23" width="7" height="7" as="geometry" />
        </mxCell>
        <mxCell id="13AhnGZ2lNqIllvzI92S-160" value="" style="endArrow=none;html=1;rounded=0;entryX=0;entryY=1;entryDx=0;entryDy=0;movable=1;resizable=1;rotatable=1;deletable=1;editable=1;locked=0;connectable=1;" edge="1" parent="13AhnGZ2lNqIllvzI92S-158" target="13AhnGZ2lNqIllvzI92S-159">
          <mxGeometry width="50" height="50" relative="1" as="geometry">
            <mxPoint x="30" as="sourcePoint" />
            <mxPoint x="6" y="24" as="targetPoint" />
          </mxGeometry>
        </mxCell>
        <mxCell id="13AhnGZ2lNqIllvzI92S-161" value="Comment" style="text;html=1;align=center;verticalAlign=middle;resizable=0;points=[];autosize=1;strokeColor=none;fillColor=none;" vertex="1" parent="1">
          <mxGeometry x="181" y="405" width="80" height="30" as="geometry" />
        </mxCell>
        <mxCell id="13AhnGZ2lNqIllvzI92S-162" value="" style="group;movable=1;resizable=1;rotatable=1;deletable=1;editable=1;locked=0;connectable=1;rotation=-180;" vertex="1" connectable="0" parent="1">
          <mxGeometry x="55" y="642" width="30" height="30" as="geometry" />
        </mxCell>
        <mxCell id="13AhnGZ2lNqIllvzI92S-163" value="" style="ellipse;whiteSpace=wrap;html=1;aspect=fixed;movable=1;resizable=1;rotatable=1;deletable=1;editable=1;locked=0;connectable=1;rotation=-180;" vertex="1" parent="13AhnGZ2lNqIllvzI92S-162">
          <mxGeometry x="-1" y="23" width="7" height="7" as="geometry" />
        </mxCell>
        <mxCell id="13AhnGZ2lNqIllvzI92S-164" value="" style="endArrow=none;html=1;rounded=0;entryX=0;entryY=1;entryDx=0;entryDy=0;movable=1;resizable=1;rotatable=1;deletable=1;editable=1;locked=0;connectable=1;" edge="1" parent="13AhnGZ2lNqIllvzI92S-162" target="13AhnGZ2lNqIllvzI92S-163">
          <mxGeometry width="50" height="50" relative="1" as="geometry">
            <mxPoint x="30" as="sourcePoint" />
            <mxPoint x="6" y="24" as="targetPoint" />
          </mxGeometry>
        </mxCell>
        <mxCell id="13AhnGZ2lNqIllvzI92S-165" value="Permissions" style="text;html=1;align=center;verticalAlign=middle;resizable=0;points=[];autosize=1;strokeColor=none;fillColor=none;" vertex="1" parent="1">
          <mxGeometry x="12" y="664" width="90" height="30" as="geometry" />
        </mxCell>
        <mxCell id="13AhnGZ2lNqIllvzI92S-170" value="" style="group;movable=1;resizable=1;rotatable=1;deletable=1;editable=1;locked=0;connectable=1;rotation=-180;" vertex="1" connectable="0" parent="1">
          <mxGeometry x="559" y="873" width="30" height="30" as="geometry" />
        </mxCell>
        <mxCell id="13AhnGZ2lNqIllvzI92S-171" value="" style="ellipse;whiteSpace=wrap;html=1;aspect=fixed;movable=1;resizable=1;rotatable=1;deletable=1;editable=1;locked=0;connectable=1;rotation=-180;" vertex="1" parent="13AhnGZ2lNqIllvzI92S-170">
          <mxGeometry x="-1" y="23" width="7" height="7" as="geometry" />
        </mxCell>
        <mxCell id="13AhnGZ2lNqIllvzI92S-172" value="" style="endArrow=none;html=1;rounded=0;entryX=0;entryY=1;entryDx=0;entryDy=0;movable=1;resizable=1;rotatable=1;deletable=1;editable=1;locked=0;connectable=1;" edge="1" parent="13AhnGZ2lNqIllvzI92S-170" target="13AhnGZ2lNqIllvzI92S-171">
          <mxGeometry width="50" height="50" relative="1" as="geometry">
            <mxPoint x="30" as="sourcePoint" />
            <mxPoint x="6" y="24" as="targetPoint" />
          </mxGeometry>
        </mxCell>
        <mxCell id="13AhnGZ2lNqIllvzI92S-173" value="Carrier" style="text;html=1;align=center;verticalAlign=middle;resizable=0;points=[];autosize=1;strokeColor=none;fillColor=none;" vertex="1" parent="1">
          <mxGeometry x="531" y="895" width="60" height="30" as="geometry" />
        </mxCell>
        <mxCell id="13AhnGZ2lNqIllvzI92S-182" value="" style="group;movable=1;resizable=1;rotatable=1;deletable=1;editable=1;locked=0;connectable=1;rotation=-180;" vertex="1" connectable="0" parent="1">
          <mxGeometry x="559" y="383" width="30" height="30" as="geometry" />
        </mxCell>
        <mxCell id="13AhnGZ2lNqIllvzI92S-183" value="" style="ellipse;whiteSpace=wrap;html=1;aspect=fixed;movable=1;resizable=1;rotatable=1;deletable=1;editable=1;locked=0;connectable=1;rotation=-180;" vertex="1" parent="13AhnGZ2lNqIllvzI92S-182">
          <mxGeometry x="-1" y="23" width="7" height="7" as="geometry" />
        </mxCell>
        <mxCell id="13AhnGZ2lNqIllvzI92S-184" value="" style="endArrow=none;html=1;rounded=0;entryX=0;entryY=1;entryDx=0;entryDy=0;movable=1;resizable=1;rotatable=1;deletable=1;editable=1;locked=0;connectable=1;" edge="1" parent="13AhnGZ2lNqIllvzI92S-182" target="13AhnGZ2lNqIllvzI92S-183">
          <mxGeometry width="50" height="50" relative="1" as="geometry">
            <mxPoint x="30" as="sourcePoint" />
            <mxPoint x="6" y="24" as="targetPoint" />
          </mxGeometry>
        </mxCell>
        <mxCell id="13AhnGZ2lNqIllvzI92S-185" value="Price" style="text;html=1;align=center;verticalAlign=middle;resizable=0;points=[];autosize=1;strokeColor=none;fillColor=none;" vertex="1" parent="1">
          <mxGeometry x="536" y="405" width="50" height="30" as="geometry" />
        </mxCell>
        <mxCell id="13AhnGZ2lNqIllvzI92S-190" value="" style="group;movable=1;resizable=1;rotatable=1;deletable=1;editable=1;locked=0;connectable=1;rotation=90;" vertex="1" connectable="0" parent="1">
          <mxGeometry x="519" y="153" width="30" height="30" as="geometry" />
        </mxCell>
        <mxCell id="13AhnGZ2lNqIllvzI92S-191" value="" style="ellipse;whiteSpace=wrap;html=1;aspect=fixed;movable=1;resizable=1;rotatable=1;deletable=1;editable=1;locked=0;connectable=1;rotation=90;" vertex="1" parent="13AhnGZ2lNqIllvzI92S-190">
          <mxGeometry x="23" y="24" width="7" height="7" as="geometry" />
        </mxCell>
        <mxCell id="13AhnGZ2lNqIllvzI92S-192" value="" style="endArrow=none;html=1;rounded=0;entryX=0;entryY=1;entryDx=0;entryDy=0;movable=1;resizable=1;rotatable=1;deletable=1;editable=1;locked=0;connectable=1;" edge="1" parent="13AhnGZ2lNqIllvzI92S-190" target="13AhnGZ2lNqIllvzI92S-191">
          <mxGeometry width="50" height="50" relative="1" as="geometry">
            <mxPoint as="sourcePoint" />
            <mxPoint x="24" y="24" as="targetPoint" />
          </mxGeometry>
        </mxCell>
        <mxCell id="13AhnGZ2lNqIllvzI92S-193" value="Price" style="text;html=1;align=center;verticalAlign=middle;resizable=0;points=[];autosize=1;strokeColor=none;fillColor=none;" vertex="1" parent="1">
          <mxGeometry x="520" y="177" width="50" height="30" as="geometry" />
        </mxCell>
        <mxCell id="13AhnGZ2lNqIllvzI92S-194" value="" style="group;movable=1;resizable=1;rotatable=1;deletable=1;editable=1;locked=0;connectable=1;rotation=90;" vertex="1" connectable="0" parent="1">
          <mxGeometry x="349" y="383" width="30" height="30" as="geometry" />
        </mxCell>
        <mxCell id="13AhnGZ2lNqIllvzI92S-195" value="" style="ellipse;whiteSpace=wrap;html=1;aspect=fixed;movable=1;resizable=1;rotatable=1;deletable=1;editable=1;locked=0;connectable=1;rotation=90;" vertex="1" parent="13AhnGZ2lNqIllvzI92S-194">
          <mxGeometry x="23" y="24" width="7" height="7" as="geometry" />
        </mxCell>
        <mxCell id="13AhnGZ2lNqIllvzI92S-196" value="" style="endArrow=none;html=1;rounded=0;entryX=0;entryY=1;entryDx=0;entryDy=0;movable=1;resizable=1;rotatable=1;deletable=1;editable=1;locked=0;connectable=1;" edge="1" parent="13AhnGZ2lNqIllvzI92S-194" target="13AhnGZ2lNqIllvzI92S-195">
          <mxGeometry width="50" height="50" relative="1" as="geometry">
            <mxPoint as="sourcePoint" />
            <mxPoint x="24" y="24" as="targetPoint" />
          </mxGeometry>
        </mxCell>
        <mxCell id="13AhnGZ2lNqIllvzI92S-197" value="Rating(1-5)" style="text;html=1;align=center;verticalAlign=middle;resizable=0;points=[];autosize=1;strokeColor=none;fillColor=none;" vertex="1" parent="1">
          <mxGeometry x="335" y="407" width="80" height="30" as="geometry" />
        </mxCell>
        <mxCell id="13AhnGZ2lNqIllvzI92S-198" value="" style="group;movable=1;resizable=1;rotatable=1;deletable=1;editable=1;locked=0;connectable=1;rotation=90;" vertex="1" connectable="0" parent="1">
          <mxGeometry x="349" y="599" width="30" height="30" as="geometry" />
        </mxCell>
        <mxCell id="13AhnGZ2lNqIllvzI92S-199" value="" style="ellipse;whiteSpace=wrap;html=1;aspect=fixed;movable=1;resizable=1;rotatable=1;deletable=1;editable=1;locked=0;connectable=1;rotation=90;" vertex="1" parent="13AhnGZ2lNqIllvzI92S-198">
          <mxGeometry x="23" y="24" width="7" height="7" as="geometry" />
        </mxCell>
        <mxCell id="13AhnGZ2lNqIllvzI92S-200" value="" style="endArrow=none;html=1;rounded=0;entryX=0;entryY=1;entryDx=0;entryDy=0;movable=1;resizable=1;rotatable=1;deletable=1;editable=1;locked=0;connectable=1;" edge="1" parent="13AhnGZ2lNqIllvzI92S-198" target="13AhnGZ2lNqIllvzI92S-199">
          <mxGeometry width="50" height="50" relative="1" as="geometry">
            <mxPoint as="sourcePoint" />
            <mxPoint x="24" y="24" as="targetPoint" />
          </mxGeometry>
        </mxCell>
        <mxCell id="13AhnGZ2lNqIllvzI92S-201" value="Name" style="text;html=1;align=center;verticalAlign=middle;resizable=0;points=[];autosize=1;strokeColor=none;fillColor=none;" vertex="1" parent="1">
          <mxGeometry x="345" y="623" width="60" height="30" as="geometry" />
        </mxCell>
        <mxCell id="13AhnGZ2lNqIllvzI92S-202" value="" style="group;movable=1;resizable=1;rotatable=1;deletable=1;editable=1;locked=0;connectable=1;rotation=90;" vertex="1" connectable="0" parent="1">
          <mxGeometry x="689" y="613" width="30" height="30" as="geometry" />
        </mxCell>
        <mxCell id="13AhnGZ2lNqIllvzI92S-203" value="" style="ellipse;whiteSpace=wrap;html=1;aspect=fixed;movable=1;resizable=1;rotatable=1;deletable=1;editable=1;locked=0;connectable=1;rotation=90;" vertex="1" parent="13AhnGZ2lNqIllvzI92S-202">
          <mxGeometry x="23" y="24" width="7" height="7" as="geometry" />
        </mxCell>
        <mxCell id="13AhnGZ2lNqIllvzI92S-204" value="" style="endArrow=none;html=1;rounded=0;entryX=0;entryY=1;entryDx=0;entryDy=0;movable=1;resizable=1;rotatable=1;deletable=1;editable=1;locked=0;connectable=1;" edge="1" parent="13AhnGZ2lNqIllvzI92S-202" target="13AhnGZ2lNqIllvzI92S-203">
          <mxGeometry width="50" height="50" relative="1" as="geometry">
            <mxPoint as="sourcePoint" />
            <mxPoint x="24" y="24" as="targetPoint" />
          </mxGeometry>
        </mxCell>
        <mxCell id="13AhnGZ2lNqIllvzI92S-205" value="Status" style="text;html=1;align=center;verticalAlign=middle;resizable=0;points=[];autosize=1;strokeColor=none;fillColor=none;" vertex="1" parent="1">
          <mxGeometry x="685" y="637" width="60" height="30" as="geometry" />
        </mxCell>
        <mxCell id="13AhnGZ2lNqIllvzI92S-206" value="" style="group;movable=1;resizable=1;rotatable=1;deletable=1;editable=1;locked=0;connectable=1;rotation=90;" vertex="1" connectable="0" parent="1">
          <mxGeometry x="689" y="383" width="30" height="30" as="geometry" />
        </mxCell>
        <mxCell id="13AhnGZ2lNqIllvzI92S-207" value="" style="ellipse;whiteSpace=wrap;html=1;aspect=fixed;movable=1;resizable=1;rotatable=1;deletable=1;editable=1;locked=0;connectable=1;rotation=90;" vertex="1" parent="13AhnGZ2lNqIllvzI92S-206">
          <mxGeometry x="23" y="24" width="7" height="7" as="geometry" />
        </mxCell>
        <mxCell id="13AhnGZ2lNqIllvzI92S-208" value="" style="endArrow=none;html=1;rounded=0;entryX=0;entryY=1;entryDx=0;entryDy=0;movable=1;resizable=1;rotatable=1;deletable=1;editable=1;locked=0;connectable=1;" edge="1" parent="13AhnGZ2lNqIllvzI92S-206" target="13AhnGZ2lNqIllvzI92S-207">
          <mxGeometry width="50" height="50" relative="1" as="geometry">
            <mxPoint as="sourcePoint" />
            <mxPoint x="24" y="24" as="targetPoint" />
          </mxGeometry>
        </mxCell>
        <mxCell id="13AhnGZ2lNqIllvzI92S-209" value="Quantity" style="text;html=1;align=center;verticalAlign=middle;resizable=0;points=[];autosize=1;strokeColor=none;fillColor=none;" vertex="1" parent="1">
          <mxGeometry x="680" y="407" width="70" height="30" as="geometry" />
        </mxCell>
        <mxCell id="13AhnGZ2lNqIllvzI92S-210" value="" style="group;movable=1;resizable=1;rotatable=1;deletable=1;editable=1;locked=0;connectable=1;rotation=90;" vertex="1" connectable="0" parent="1">
          <mxGeometry x="869" y="273" width="30" height="30" as="geometry" />
        </mxCell>
        <mxCell id="13AhnGZ2lNqIllvzI92S-211" value="" style="ellipse;whiteSpace=wrap;html=1;aspect=fixed;movable=1;resizable=1;rotatable=1;deletable=1;editable=1;locked=0;connectable=1;rotation=90;" vertex="1" parent="13AhnGZ2lNqIllvzI92S-210">
          <mxGeometry x="23" y="24" width="7" height="7" as="geometry" />
        </mxCell>
        <mxCell id="13AhnGZ2lNqIllvzI92S-212" value="" style="endArrow=none;html=1;rounded=0;entryX=0;entryY=1;entryDx=0;entryDy=0;movable=1;resizable=1;rotatable=1;deletable=1;editable=1;locked=0;connectable=1;" edge="1" parent="13AhnGZ2lNqIllvzI92S-210" target="13AhnGZ2lNqIllvzI92S-211">
          <mxGeometry width="50" height="50" relative="1" as="geometry">
            <mxPoint as="sourcePoint" />
            <mxPoint x="24" y="24" as="targetPoint" />
          </mxGeometry>
        </mxCell>
        <mxCell id="13AhnGZ2lNqIllvzI92S-213" value="Name" style="text;html=1;align=center;verticalAlign=middle;resizable=0;points=[];autosize=1;strokeColor=none;fillColor=none;" vertex="1" parent="1">
          <mxGeometry x="865" y="297" width="60" height="30" as="geometry" />
        </mxCell>
        <mxCell id="13AhnGZ2lNqIllvzI92S-214" value="" style="group;movable=1;resizable=1;rotatable=1;deletable=1;editable=1;locked=0;connectable=1;rotation=90;" vertex="1" connectable="0" parent="1">
          <mxGeometry x="689" y="873" width="30" height="30" as="geometry" />
        </mxCell>
        <mxCell id="13AhnGZ2lNqIllvzI92S-215" value="" style="ellipse;whiteSpace=wrap;html=1;aspect=fixed;movable=1;resizable=1;rotatable=1;deletable=1;editable=1;locked=0;connectable=1;rotation=90;" vertex="1" parent="13AhnGZ2lNqIllvzI92S-214">
          <mxGeometry x="23" y="24" width="7" height="7" as="geometry" />
        </mxCell>
        <mxCell id="13AhnGZ2lNqIllvzI92S-216" value="" style="endArrow=none;html=1;rounded=0;entryX=0;entryY=1;entryDx=0;entryDy=0;movable=1;resizable=1;rotatable=1;deletable=1;editable=1;locked=0;connectable=1;" edge="1" parent="13AhnGZ2lNqIllvzI92S-214" target="13AhnGZ2lNqIllvzI92S-215">
          <mxGeometry width="50" height="50" relative="1" as="geometry">
            <mxPoint as="sourcePoint" />
            <mxPoint x="24" y="24" as="targetPoint" />
          </mxGeometry>
        </mxCell>
        <mxCell id="13AhnGZ2lNqIllvzI92S-217" value="Tracking Num" style="text;html=1;align=center;verticalAlign=middle;resizable=0;points=[];autosize=1;strokeColor=none;fillColor=none;" vertex="1" parent="1">
          <mxGeometry x="665" y="897" width="100" height="30" as="geometry" />
        </mxCell>
        <mxCell id="13AhnGZ2lNqIllvzI92S-218" value="" style="group;movable=1;resizable=1;rotatable=1;deletable=1;editable=1;locked=0;connectable=1;rotation=90;" vertex="1" connectable="0" parent="1">
          <mxGeometry x="869" y="496" width="30" height="30" as="geometry" />
        </mxCell>
        <mxCell id="13AhnGZ2lNqIllvzI92S-219" value="" style="ellipse;whiteSpace=wrap;html=1;aspect=fixed;movable=1;resizable=1;rotatable=1;deletable=1;editable=1;locked=0;connectable=1;rotation=90;" vertex="1" parent="13AhnGZ2lNqIllvzI92S-218">
          <mxGeometry x="23" y="24" width="7" height="7" as="geometry" />
        </mxCell>
        <mxCell id="13AhnGZ2lNqIllvzI92S-220" value="" style="endArrow=none;html=1;rounded=0;entryX=0;entryY=1;entryDx=0;entryDy=0;movable=1;resizable=1;rotatable=1;deletable=1;editable=1;locked=0;connectable=1;" edge="1" parent="13AhnGZ2lNqIllvzI92S-218" target="13AhnGZ2lNqIllvzI92S-219">
          <mxGeometry width="50" height="50" relative="1" as="geometry">
            <mxPoint as="sourcePoint" />
            <mxPoint x="24" y="24" as="targetPoint" />
          </mxGeometry>
        </mxCell>
        <mxCell id="13AhnGZ2lNqIllvzI92S-221" value="Percentage" style="text;html=1;align=center;verticalAlign=middle;resizable=0;points=[];autosize=1;strokeColor=none;fillColor=none;" vertex="1" parent="1">
          <mxGeometry x="855" y="520" width="80" height="30" as="geometry" />
        </mxCell>
        <mxCell id="13AhnGZ2lNqIllvzI92S-226" value="" style="group;movable=1;resizable=1;rotatable=1;deletable=1;editable=1;locked=0;connectable=1;rotation=-145;" vertex="1" connectable="0" parent="1">
          <mxGeometry x="49" y="608" width="30" height="30" as="geometry" />
        </mxCell>
        <mxCell id="13AhnGZ2lNqIllvzI92S-227" value="" style="ellipse;whiteSpace=wrap;html=1;aspect=fixed;movable=1;resizable=1;rotatable=1;deletable=1;editable=1;locked=0;connectable=1;rotation=-496;" vertex="1" parent="13AhnGZ2lNqIllvzI92S-226">
          <mxGeometry x="-5" y="11" width="7" height="7" as="geometry" />
        </mxCell>
        <mxCell id="13AhnGZ2lNqIllvzI92S-228" value="" style="endArrow=none;html=1;rounded=0;entryX=0;entryY=1;entryDx=0;entryDy=0;movable=1;resizable=1;rotatable=1;deletable=1;editable=1;locked=0;connectable=1;" edge="1" parent="13AhnGZ2lNqIllvzI92S-226" target="13AhnGZ2lNqIllvzI92S-227">
          <mxGeometry width="50" height="50" relative="1" as="geometry">
            <mxPoint x="36" y="14" as="sourcePoint" />
            <mxPoint x="2" y="16" as="targetPoint" />
          </mxGeometry>
        </mxCell>
        <mxCell id="13AhnGZ2lNqIllvzI92S-231" value="Role" style="text;html=1;align=center;verticalAlign=middle;resizable=0;points=[];autosize=1;strokeColor=none;fillColor=none;" vertex="1" parent="1">
          <mxGeometry x="2" y="607" width="50" height="30" as="geometry" />
        </mxCell>
        <mxCell id="13AhnGZ2lNqIllvzI92S-235" value="" style="group;movable=1;resizable=1;rotatable=1;deletable=1;editable=1;locked=0;connectable=1;rotation=135;" vertex="1" connectable="0" parent="1">
          <mxGeometry x="453" y="159" width="30" height="30" as="geometry" />
        </mxCell>
        <mxCell id="13AhnGZ2lNqIllvzI92S-236" value="" style="ellipse;whiteSpace=wrap;html=1;aspect=fixed;movable=1;resizable=1;rotatable=1;deletable=1;editable=1;locked=0;connectable=1;rotation=135;" vertex="1" parent="13AhnGZ2lNqIllvzI92S-235">
          <mxGeometry x="11" y="28" width="7" height="7" as="geometry" />
        </mxCell>
        <mxCell id="13AhnGZ2lNqIllvzI92S-237" value="" style="endArrow=none;html=1;rounded=0;entryX=0;entryY=1;entryDx=0;entryDy=0;movable=1;resizable=1;rotatable=1;deletable=1;editable=1;locked=0;connectable=1;" edge="1" parent="13AhnGZ2lNqIllvzI92S-235" target="13AhnGZ2lNqIllvzI92S-236">
          <mxGeometry width="50" height="50" relative="1" as="geometry">
            <mxPoint x="15" y="-6" as="sourcePoint" />
            <mxPoint x="15" y="28" as="targetPoint" />
          </mxGeometry>
        </mxCell>
        <mxCell id="13AhnGZ2lNqIllvzI92S-238" value="Description" style="text;html=1;align=center;verticalAlign=middle;resizable=0;points=[];autosize=1;strokeColor=none;fillColor=none;" vertex="1" parent="1">
          <mxGeometry x="427" y="189" width="80" height="30" as="geometry" />
        </mxCell>
        <mxCell id="13AhnGZ2lNqIllvzI92S-239" value="" style="group;movable=1;resizable=1;rotatable=1;deletable=1;editable=1;locked=0;connectable=1;rotation=30;direction=south;" vertex="1" connectable="0" parent="1">
          <mxGeometry x="524" y="99" width="30" height="30" as="geometry" />
        </mxCell>
        <mxCell id="13AhnGZ2lNqIllvzI92S-240" value="" style="ellipse;whiteSpace=wrap;html=1;aspect=fixed;movable=1;resizable=1;rotatable=1;deletable=1;editable=1;locked=0;connectable=1;rotation=30;" vertex="1" parent="13AhnGZ2lNqIllvzI92S-239">
          <mxGeometry x="28" y="8" width="7" height="7" as="geometry" />
        </mxCell>
        <mxCell id="13AhnGZ2lNqIllvzI92S-241" value="" style="endArrow=none;html=1;rounded=0;entryX=0;entryY=1;entryDx=0;entryDy=0;movable=1;resizable=1;rotatable=1;deletable=1;editable=1;locked=0;connectable=1;" edge="1" parent="13AhnGZ2lNqIllvzI92S-239" target="13AhnGZ2lNqIllvzI92S-240">
          <mxGeometry width="50" height="50" relative="1" as="geometry">
            <mxPoint x="-5" y="21" as="sourcePoint" />
            <mxPoint x="27" y="11" as="targetPoint" />
          </mxGeometry>
        </mxCell>
        <mxCell id="13AhnGZ2lNqIllvzI92S-242" value="Stock" style="text;html=1;align=center;verticalAlign=middle;resizable=0;points=[];autosize=1;strokeColor=none;fillColor=none;" vertex="1" parent="1">
          <mxGeometry x="552" y="95" width="50" height="30" as="geometry" />
        </mxCell>
        <mxCell id="13AhnGZ2lNqIllvzI92S-244" value="" style="group;rotation=-90;" vertex="1" connectable="0" parent="1">
          <mxGeometry x="532" y="286" width="73" height="40" as="geometry" />
        </mxCell>
        <mxCell id="13AhnGZ2lNqIllvzI92S-245" value="" style="ellipse;whiteSpace=wrap;html=1;aspect=fixed;fillColor=#000000;rotation=-90;" vertex="1" parent="13AhnGZ2lNqIllvzI92S-244">
          <mxGeometry x="25" y="25" width="8" height="8" as="geometry" />
        </mxCell>
        <mxCell id="13AhnGZ2lNqIllvzI92S-246" value="" style="endArrow=none;html=1;rounded=0;entryX=0;entryY=1;entryDx=0;entryDy=0;" edge="1" parent="13AhnGZ2lNqIllvzI92S-244" target="13AhnGZ2lNqIllvzI92S-245">
          <mxGeometry width="50" height="50" relative="1" as="geometry">
            <mxPoint x="57" y="57" as="sourcePoint" />
            <mxPoint x="25" y="25" as="targetPoint" />
          </mxGeometry>
        </mxCell>
        <mxCell id="13AhnGZ2lNqIllvzI92S-249" value="" style="shape=curlyBracket;whiteSpace=wrap;html=1;rounded=1;flipH=1;labelPosition=right;verticalLabelPosition=middle;align=left;verticalAlign=middle;strokeWidth=2;" vertex="1" parent="1">
          <mxGeometry x="189" y="534" width="50" height="120" as="geometry" />
        </mxCell>
        <mxCell id="13AhnGZ2lNqIllvzI92S-251" value="" style="edgeStyle=segmentEdgeStyle;endArrow=classic;html=1;curved=0;rounded=0;endSize=8;startSize=8;strokeWidth=2;exitX=0.1;exitY=0.5;exitDx=0;exitDy=0;exitPerimeter=0;" edge="1" parent="1" source="13AhnGZ2lNqIllvzI92S-249">
          <mxGeometry width="50" height="50" relative="1" as="geometry">
            <mxPoint x="236" y="594.6300000000001" as="sourcePoint" />
            <mxPoint x="249" y="594" as="targetPoint" />
          </mxGeometry>
        </mxCell>
        <mxCell id="13AhnGZ2lNqIllvzI92S-252" value="Customer" style="whiteSpace=wrap;html=1;align=center;" vertex="1" parent="1">
          <mxGeometry x="85" y="544" width="100" height="40" as="geometry" />
        </mxCell>
        <mxCell id="13AhnGZ2lNqIllvzI92S-254" value="Admin" style="whiteSpace=wrap;html=1;align=center;" vertex="1" parent="1">
          <mxGeometry x="85" y="602" width="100" height="40" as="geometry" />
        </mxCell>
        <mxCell id="13AhnGZ2lNqIllvzI92S-259" value="" style="group;movable=1;resizable=1;rotatable=1;deletable=1;editable=1;locked=0;connectable=1;rotation=-90;" vertex="1" connectable="0" parent="1">
          <mxGeometry x="55" y="514" width="30" height="30" as="geometry" />
        </mxCell>
        <mxCell id="13AhnGZ2lNqIllvzI92S-260" value="" style="ellipse;whiteSpace=wrap;html=1;aspect=fixed;movable=1;resizable=1;rotatable=1;deletable=1;editable=1;locked=0;connectable=1;rotation=-90;" vertex="1" parent="13AhnGZ2lNqIllvzI92S-259">
          <mxGeometry y="-1" width="7" height="7" as="geometry" />
        </mxCell>
        <mxCell id="13AhnGZ2lNqIllvzI92S-261" value="" style="endArrow=none;html=1;rounded=0;entryX=0;entryY=1;entryDx=0;entryDy=0;movable=1;resizable=1;rotatable=1;deletable=1;editable=1;locked=0;connectable=1;" edge="1" parent="13AhnGZ2lNqIllvzI92S-259" target="13AhnGZ2lNqIllvzI92S-260">
          <mxGeometry width="50" height="50" relative="1" as="geometry">
            <mxPoint x="30" y="30" as="sourcePoint" />
            <mxPoint x="6" y="6" as="targetPoint" />
          </mxGeometry>
        </mxCell>
        <mxCell id="13AhnGZ2lNqIllvzI92S-262" value="Shipping Address" style="text;html=1;align=center;verticalAlign=middle;resizable=0;points=[];autosize=1;strokeColor=none;fillColor=none;" vertex="1" parent="1">
          <mxGeometry x="-1" y="491" width="120" height="30" as="geometry" />
        </mxCell>
        <mxCell id="13AhnGZ2lNqIllvzI92S-263" value="" style="group;movable=1;resizable=1;rotatable=1;deletable=1;editable=1;locked=0;connectable=1;rotation=-145;" vertex="1" connectable="0" parent="1">
          <mxGeometry x="49" y="550" width="30" height="30" as="geometry" />
        </mxCell>
        <mxCell id="13AhnGZ2lNqIllvzI92S-264" value="" style="ellipse;whiteSpace=wrap;html=1;aspect=fixed;movable=1;resizable=1;rotatable=1;deletable=1;editable=1;locked=0;connectable=1;rotation=-496;" vertex="1" parent="13AhnGZ2lNqIllvzI92S-263">
          <mxGeometry x="-5" y="11" width="7" height="7" as="geometry" />
        </mxCell>
        <mxCell id="13AhnGZ2lNqIllvzI92S-265" value="" style="endArrow=none;html=1;rounded=0;entryX=0;entryY=1;entryDx=0;entryDy=0;movable=1;resizable=1;rotatable=1;deletable=1;editable=1;locked=0;connectable=1;" edge="1" parent="13AhnGZ2lNqIllvzI92S-263" target="13AhnGZ2lNqIllvzI92S-264">
          <mxGeometry width="50" height="50" relative="1" as="geometry">
            <mxPoint x="36" y="14" as="sourcePoint" />
            <mxPoint x="2" y="16" as="targetPoint" />
          </mxGeometry>
        </mxCell>
        <mxCell id="13AhnGZ2lNqIllvzI92S-266" value="Phone" style="text;html=1;align=center;verticalAlign=middle;resizable=0;points=[];autosize=1;strokeColor=none;fillColor=none;" vertex="1" parent="1">
          <mxGeometry x="-8" y="549" width="60" height="30" as="geometry" />
        </mxCell>
        <mxCell id="13AhnGZ2lNqIllvzI92S-275" value="" style="shape=curlyBracket;whiteSpace=wrap;html=1;rounded=1;flipH=1;labelPosition=right;verticalLabelPosition=middle;align=left;verticalAlign=middle;strokeWidth=2;direction=south;" vertex="1" parent="1">
          <mxGeometry x="179" y="873" width="240" height="50" as="geometry" />
        </mxCell>
        <mxCell id="13AhnGZ2lNqIllvzI92S-277" value="Cash" style="whiteSpace=wrap;html=1;align=center;" vertex="1" parent="1">
          <mxGeometry x="190" y="927" width="100" height="40" as="geometry" />
        </mxCell>
        <mxCell id="13AhnGZ2lNqIllvzI92S-278" value="Card" style="whiteSpace=wrap;html=1;align=center;" vertex="1" parent="1">
          <mxGeometry x="310" y="926" width="100" height="40" as="geometry" />
        </mxCell>
        <mxCell id="13AhnGZ2lNqIllvzI92S-289" value="" style="edgeStyle=segmentEdgeStyle;endArrow=classic;html=1;curved=0;rounded=0;endSize=8;startSize=8;strokeWidth=2;exitX=0.1;exitY=0.5;exitDx=0;exitDy=0;exitPerimeter=0;entryX=0.5;entryY=1;entryDx=0;entryDy=0;" edge="1" parent="1" source="13AhnGZ2lNqIllvzI92S-275" target="13AhnGZ2lNqIllvzI92S-6">
          <mxGeometry width="50" height="50" relative="1" as="geometry">
            <mxPoint x="323.5" y="880" as="sourcePoint" />
            <mxPoint x="338.5" y="880" as="targetPoint" />
          </mxGeometry>
        </mxCell>
        <mxCell id="13AhnGZ2lNqIllvzI92S-294" value="" style="group;movable=1;resizable=1;rotatable=1;deletable=1;editable=1;locked=0;connectable=1;rotation=90;" vertex="1" connectable="0" parent="1">
          <mxGeometry x="410" y="966" width="30" height="30" as="geometry" />
        </mxCell>
        <mxCell id="13AhnGZ2lNqIllvzI92S-295" value="" style="ellipse;whiteSpace=wrap;html=1;aspect=fixed;movable=1;resizable=1;rotatable=1;deletable=1;editable=1;locked=0;connectable=1;rotation=90;" vertex="1" parent="13AhnGZ2lNqIllvzI92S-294">
          <mxGeometry x="23" y="24" width="7" height="7" as="geometry" />
        </mxCell>
        <mxCell id="13AhnGZ2lNqIllvzI92S-296" value="" style="endArrow=none;html=1;rounded=0;entryX=0;entryY=1;entryDx=0;entryDy=0;movable=1;resizable=1;rotatable=1;deletable=1;editable=1;locked=0;connectable=1;" edge="1" parent="13AhnGZ2lNqIllvzI92S-294" target="13AhnGZ2lNqIllvzI92S-295">
          <mxGeometry width="50" height="50" relative="1" as="geometry">
            <mxPoint as="sourcePoint" />
            <mxPoint x="24" y="24" as="targetPoint" />
          </mxGeometry>
        </mxCell>
        <mxCell id="13AhnGZ2lNqIllvzI92S-297" value="Expiration Date" style="text;html=1;align=center;verticalAlign=middle;resizable=0;points=[];autosize=1;strokeColor=none;fillColor=none;" vertex="1" parent="1">
          <mxGeometry x="381" y="990" width="110" height="30" as="geometry" />
        </mxCell>
        <mxCell id="13AhnGZ2lNqIllvzI92S-298" value="" style="group;movable=1;resizable=1;rotatable=1;deletable=1;editable=1;locked=0;connectable=1;rotation=135;" vertex="1" connectable="0" parent="1">
          <mxGeometry x="344" y="972" width="30" height="30" as="geometry" />
        </mxCell>
        <mxCell id="13AhnGZ2lNqIllvzI92S-299" value="" style="ellipse;whiteSpace=wrap;html=1;aspect=fixed;movable=1;resizable=1;rotatable=1;deletable=1;editable=1;locked=0;connectable=1;rotation=135;" vertex="1" parent="13AhnGZ2lNqIllvzI92S-298">
          <mxGeometry x="11" y="28" width="7" height="7" as="geometry" />
        </mxCell>
        <mxCell id="13AhnGZ2lNqIllvzI92S-300" value="" style="endArrow=none;html=1;rounded=0;entryX=0;entryY=1;entryDx=0;entryDy=0;movable=1;resizable=1;rotatable=1;deletable=1;editable=1;locked=0;connectable=1;" edge="1" parent="13AhnGZ2lNqIllvzI92S-298" target="13AhnGZ2lNqIllvzI92S-299">
          <mxGeometry width="50" height="50" relative="1" as="geometry">
            <mxPoint x="15" y="-6" as="sourcePoint" />
            <mxPoint x="15" y="28" as="targetPoint" />
          </mxGeometry>
        </mxCell>
        <mxCell id="13AhnGZ2lNqIllvzI92S-301" value="Card Number" style="text;html=1;align=center;verticalAlign=middle;resizable=0;points=[];autosize=1;strokeColor=none;fillColor=none;" vertex="1" parent="1">
          <mxGeometry x="308" y="1002" width="100" height="30" as="geometry" />
        </mxCell>
        <mxCell id="13AhnGZ2lNqIllvzI92S-302" value="" style="group;movable=1;resizable=1;rotatable=1;deletable=1;editable=1;locked=0;connectable=1;rotation=135;" vertex="1" connectable="0" parent="1">
          <mxGeometry x="225" y="973" width="30" height="30" as="geometry" />
        </mxCell>
        <mxCell id="13AhnGZ2lNqIllvzI92S-303" value="" style="ellipse;whiteSpace=wrap;html=1;aspect=fixed;movable=1;resizable=1;rotatable=1;deletable=1;editable=1;locked=0;connectable=1;rotation=135;" vertex="1" parent="13AhnGZ2lNqIllvzI92S-302">
          <mxGeometry x="11" y="28" width="7" height="7" as="geometry" />
        </mxCell>
        <mxCell id="13AhnGZ2lNqIllvzI92S-304" value="" style="endArrow=none;html=1;rounded=0;entryX=0;entryY=1;entryDx=0;entryDy=0;movable=1;resizable=1;rotatable=1;deletable=1;editable=1;locked=0;connectable=1;" edge="1" parent="13AhnGZ2lNqIllvzI92S-302" target="13AhnGZ2lNqIllvzI92S-303">
          <mxGeometry width="50" height="50" relative="1" as="geometry">
            <mxPoint x="15" y="-6" as="sourcePoint" />
            <mxPoint x="15" y="28" as="targetPoint" />
          </mxGeometry>
        </mxCell>
        <mxCell id="13AhnGZ2lNqIllvzI92S-305" value="Cach recived" style="text;html=1;align=center;verticalAlign=middle;resizable=0;points=[];autosize=1;strokeColor=none;fillColor=none;" vertex="1" parent="1">
          <mxGeometry x="194" y="1003" width="90" height="30" as="geometry" />
        </mxCell>
        <mxCell id="13AhnGZ2lNqIllvzI92S-306" value="" style="group;movable=1;resizable=1;rotatable=1;deletable=1;editable=1;locked=0;connectable=1;rotation=-180;" vertex="1" connectable="0" parent="1">
          <mxGeometry x="160" y="967" width="30" height="30" as="geometry" />
        </mxCell>
        <mxCell id="13AhnGZ2lNqIllvzI92S-307" value="" style="ellipse;whiteSpace=wrap;html=1;aspect=fixed;movable=1;resizable=1;rotatable=1;deletable=1;editable=1;locked=0;connectable=1;rotation=-180;" vertex="1" parent="13AhnGZ2lNqIllvzI92S-306">
          <mxGeometry x="-1" y="23" width="7" height="7" as="geometry" />
        </mxCell>
        <mxCell id="13AhnGZ2lNqIllvzI92S-308" value="" style="endArrow=none;html=1;rounded=0;entryX=0;entryY=1;entryDx=0;entryDy=0;movable=1;resizable=1;rotatable=1;deletable=1;editable=1;locked=0;connectable=1;" edge="1" parent="13AhnGZ2lNqIllvzI92S-306" target="13AhnGZ2lNqIllvzI92S-307">
          <mxGeometry width="50" height="50" relative="1" as="geometry">
            <mxPoint x="30" as="sourcePoint" />
            <mxPoint x="6" y="24" as="targetPoint" />
          </mxGeometry>
        </mxCell>
        <mxCell id="13AhnGZ2lNqIllvzI92S-309" value="Currency" style="text;html=1;align=center;verticalAlign=middle;resizable=0;points=[];autosize=1;strokeColor=none;fillColor=none;" vertex="1" parent="1">
          <mxGeometry x="127" y="989" width="70" height="30" as="geometry" />
        </mxCell>
        <mxCell id="13AhnGZ2lNqIllvzI92S-311" value="&lt;b&gt;(1,N)&lt;/b&gt;" style="text;html=1;align=center;verticalAlign=middle;resizable=0;points=[];autosize=1;strokeColor=none;fillColor=none;" vertex="1" parent="1">
          <mxGeometry x="630" y="519" width="50" height="30" as="geometry" />
        </mxCell>
        <mxCell id="13AhnGZ2lNqIllvzI92S-312" value="&lt;b&gt;(1,N)&lt;/b&gt;" style="text;html=1;align=center;verticalAlign=middle;resizable=0;points=[];autosize=1;strokeColor=none;fillColor=none;" vertex="1" parent="1">
          <mxGeometry x="253" y="638" width="50" height="30" as="geometry" />
        </mxCell>
        <mxCell id="13AhnGZ2lNqIllvzI92S-313" value="&lt;b&gt;(1,N)&lt;/b&gt;" style="text;html=1;align=center;verticalAlign=middle;resizable=0;points=[];autosize=1;strokeColor=none;fillColor=none;" vertex="1" parent="1">
          <mxGeometry x="700.5" y="569" width="50" height="30" as="geometry" />
        </mxCell>
        <mxCell id="13AhnGZ2lNqIllvzI92S-314" value="&lt;b&gt;(1,N)&lt;/b&gt;" style="text;html=1;align=center;verticalAlign=middle;resizable=0;points=[];autosize=1;strokeColor=none;fillColor=none;" vertex="1" parent="1">
          <mxGeometry x="256" y="521" width="50" height="30" as="geometry" />
        </mxCell>
        <mxCell id="13AhnGZ2lNqIllvzI92S-315" value="&lt;b&gt;(1,N)&lt;/b&gt;" style="text;html=1;align=center;verticalAlign=middle;resizable=0;points=[];autosize=1;strokeColor=none;fillColor=none;" vertex="1" parent="1">
          <mxGeometry x="256" y="296" width="50" height="30" as="geometry" />
        </mxCell>
        <mxCell id="13AhnGZ2lNqIllvzI92S-316" value="&lt;b&gt;(1,1)&lt;/b&gt;" style="text;html=1;align=center;verticalAlign=middle;resizable=0;points=[];autosize=1;strokeColor=none;fillColor=none;" vertex="1" parent="1">
          <mxGeometry x="630" y="297" width="50" height="30" as="geometry" />
        </mxCell>
        <mxCell id="13AhnGZ2lNqIllvzI92S-317" value="&lt;b&gt;(1,1)&lt;/b&gt;" style="text;html=1;align=center;verticalAlign=middle;resizable=0;points=[];autosize=1;strokeColor=none;fillColor=none;" vertex="1" parent="1">
          <mxGeometry x="615" y="58" width="50" height="30" as="geometry" />
        </mxCell>
        <mxCell id="13AhnGZ2lNqIllvzI92S-319" value="&lt;b&gt;(1,1)&lt;/b&gt;" style="text;html=1;align=center;verticalAlign=middle;resizable=0;points=[];autosize=1;strokeColor=none;fillColor=none;" vertex="1" parent="1">
          <mxGeometry x="630" y="638" width="50" height="30" as="geometry" />
        </mxCell>
        <mxCell id="13AhnGZ2lNqIllvzI92S-321" value="&lt;b&gt;(0,N)&lt;/b&gt;" style="text;html=1;align=center;verticalAlign=middle;resizable=0;points=[];autosize=1;strokeColor=none;fillColor=none;" vertex="1" parent="1">
          <mxGeometry x="531" y="569" width="50" height="30" as="geometry" />
        </mxCell>
        <mxCell id="13AhnGZ2lNqIllvzI92S-322" value="&lt;b&gt;(0,N)&lt;/b&gt;" style="text;html=1;align=center;verticalAlign=middle;resizable=0;points=[];autosize=1;strokeColor=none;fillColor=none;" vertex="1" parent="1">
          <mxGeometry x="630" y="400" width="50" height="30" as="geometry" />
        </mxCell>
        <mxCell id="13AhnGZ2lNqIllvzI92S-323" value="&lt;b&gt;(0,N)&lt;/b&gt;" style="text;html=1;align=center;verticalAlign=middle;resizable=0;points=[];autosize=1;strokeColor=none;fillColor=none;" vertex="1" parent="1">
          <mxGeometry x="630" y="163" width="50" height="30" as="geometry" />
        </mxCell>
        <mxCell id="13AhnGZ2lNqIllvzI92S-324" value="&lt;b&gt;(0,1)&lt;/b&gt;" style="text;html=1;align=center;verticalAlign=middle;resizable=0;points=[];autosize=1;strokeColor=none;fillColor=none;" vertex="1" parent="1">
          <mxGeometry x="777" y="179" width="50" height="30" as="geometry" />
        </mxCell>
        <mxCell id="13AhnGZ2lNqIllvzI92S-325" value="&lt;b&gt;(0,N)&lt;/b&gt;" style="text;html=1;align=center;verticalAlign=middle;resizable=0;points=[];autosize=1;strokeColor=none;fillColor=none;" vertex="1" parent="1">
          <mxGeometry x="253" y="763" width="50" height="30" as="geometry" />
        </mxCell>
        <mxCell id="13AhnGZ2lNqIllvzI92S-326" value="&lt;b&gt;(0,1)&lt;/b&gt;" style="text;html=1;align=center;verticalAlign=middle;resizable=0;points=[];autosize=1;strokeColor=none;fillColor=none;" vertex="1" parent="1">
          <mxGeometry x="630" y="773" width="50" height="30" as="geometry" />
        </mxCell>
        <mxCell id="13AhnGZ2lNqIllvzI92S-327" value="&lt;b&gt;(0,N)&lt;/b&gt;" style="text;html=1;align=center;verticalAlign=middle;resizable=0;points=[];autosize=1;strokeColor=none;fillColor=none;" vertex="1" parent="1">
          <mxGeometry x="777" y="526" width="50" height="30" as="geometry" />
        </mxCell>
        <mxCell id="13AhnGZ2lNqIllvzI92S-328" value="&lt;b&gt;(0,N)&lt;/b&gt;" style="text;html=1;align=center;verticalAlign=middle;resizable=0;points=[];autosize=1;strokeColor=none;fillColor=none;" vertex="1" parent="1">
          <mxGeometry x="256" y="400" width="50" height="30" as="geometry" />
        </mxCell>
        <mxCell id="13AhnGZ2lNqIllvzI92S-329" value="&lt;b&gt;(0,N)&lt;/b&gt;" style="text;html=1;align=center;verticalAlign=middle;resizable=0;points=[];autosize=1;strokeColor=none;fillColor=none;" vertex="1" parent="1">
          <mxGeometry x="255" y="163" width="50" height="30" as="geometry" />
        </mxCell>
      </root>
    </mxGraphModel>
  </diagram>
</mxfile>
